<?xml version="1.0" ?><svg viewBox="0 0 64 64" xmlns="http://www.w3.org/2000/svg"><g id="Flat"><g id="Color"><ellipse cx="32" cy="53.5" fill="#fccd1d" rx="29" ry="7.5"/><ellipse cx="32" cy="53.5" fill="#f9a215" rx="20" ry="3.5"/><path d="M54,25A22,22,0,1,0,22.86,45l7.82,7.84a2,2,0,0,0,2.64,0L41.14,45A22,22,0,0,0,54,25Z" fill="#dd051d"/><circle cx="32" cy="25" fill="#fff" r="18"/><path d="M43.63,18.47A23.11,23.11,0,0,1,32.06,38,23.09,23.09,0,0,1,20.49,18.47c.09,0,11.57-6.47,11.57-6.47Z" fill="#16388b"/><path d="M32.46,19.34l.91,2.79a.49.49,0,0,0,.46.34h2.94a.49.49,0,0,1,.29.88l-2.38,1.73a.47.47,0,0,0-.17.54l.9,2.8a.48.48,0,0,1-.75.54l-2.37-1.73a.51.51,0,0,0-.58,0L29.34,29a.48.48,0,0,1-.75-.54l.9-2.8a.47.47,0,0,0-.17-.54l-2.38-1.73a.49.49,0,0,1,.29-.88h2.94a.49.49,0,0,0,.46-.34l.91-2.79A.48.48,0,0,1,32.46,19.34Z" fill="#fccd1d"/></g></g></svg>